<?xml version="1.0" encoding="utf-8"?>
<!-- Generator: Adobe Illustrator 19.0.0, SVG Export Plug-In . SVG Version: 6.00 Build 0)  -->
<svg version="1.1" id="Layer_1" xmlns="http://www.w3.org/2000/svg" xmlns:xlink="http://www.w3.org/1999/xlink" x="0px" y="0px"
	 viewBox="0 0 18 18" style="enable-background:new 0 0 18 18;" xml:space="preserve">
<style type="text/css">
	.st0{fill:#474647;}
	.st1{fill:#FFFFFF;}
</style>
<circle id="XMLID_3_" class="st0" cx="-20.1" cy="43.8" r="9"/>
<path id="XMLID_2_" class="st1" d="M-15.9,38.3c-0.6,0.3-1.5,0.4-2.7-0.7l-2.3,1.9c0,0,0,0.7,0,1.4l-2.1,1.8c0,0,0,0,0,0.1
	c0,0.1,0.1,0.1,0.1,0.1c1.4-1,1.4,0.3,1.4,0.3v6.2c-0.2-0.1-0.3-0.1-0.6-0.2c-1.9-0.8-0.8-0.9-1.4-0.3c-0.6,0.6-1,1-1,1
	s0,0.2,0.1,0.1c0.2-0.1,0.5-0.5,1.4-0.1c0.9,0.4,1.7,0.6,2.2,0.1c0.8-0.8,1.1-2.7,1.1-3.7c0-0.7,0.1-1,0.2-3.9c0.4,0,1,0,1.4-0.1
	c0.5-0.1,1.3-0.9,1.7-1.3c0-0.1,0-0.1-0.1-0.1c-0.3,0.2-0.6,0.2-1.2,0.2c-0.8,0-1.8-0.1-1.8-0.1l0-1c0-1.3,0.1-1.2,0.1-1.3
	c0,0,1.8,2.1,3.9-0.5"/>
</svg>
